<?xml version="1.0" encoding="UTF-8" standalone="no"?>
<!-- Created with Inkscape (http://www.inkscape.org/) -->

<svg
   xmlns:dc="http://purl.org/dc/elements/1.1/"
   xmlns:cc="http://creativecommons.org/ns#"
   xmlns:rdf="http://www.w3.org/1999/02/22-rdf-syntax-ns#"
   xmlns:svg="http://www.w3.org/2000/svg"
   xmlns="http://www.w3.org/2000/svg"
   xmlns:sodipodi="http://sodipodi.sourceforge.net/DTD/sodipodi-0.dtd"
   xmlns:inkscape="http://www.inkscape.org/namespaces/inkscape"
   id="svg3039"
   version="1.1"
   inkscape:version="0.48.2 r9819"
   width="704.93585"
   height="195.79099"
   sodipodi:docname="100-nl-logo.svg">
  <metadata
     id="metadata3045">
    <rdf:RDF>
      <cc:Work
         rdf:about="">
        <dc:format>image/svg+xml</dc:format>
        <dc:type
           rdf:resource="http://purl.org/dc/dcmitype/StillImage" />
        <dc:title></dc:title>
      </cc:Work>
    </rdf:RDF>
  </metadata>
  <defs
     id="defs3043" />
  <sodipodi:namedview
     pagecolor="#ffffff"
     bordercolor="#666666"
     borderopacity="1"
     objecttolerance="10"
     gridtolerance="10"
     guidetolerance="10"
     inkscape:pageopacity="0"
     inkscape:pageshadow="2"
     inkscape:window-width="1122"
     inkscape:window-height="694"
     id="namedview3041"
     showgrid="false"
     inkscape:snap-global="false"
     inkscape:zoom="0.86580905"
     inkscape:cx="526.39006"
     inkscape:cy="13.353821"
     inkscape:window-x="109"
     inkscape:window-y="38"
     inkscape:window-maximized="0"
     inkscape:current-layer="svg3039"
     fit-margin-top="0"
     fit-margin-left="0"
     fit-margin-right="0"
     fit-margin-bottom="0" />
  <g
     id="g3072"
     transform="translate(-48.181951,-181.16334)">
    <rect
       style="fill:#ffffff"
       y="194.25696"
       x="103.94902"
       height="170.93839"
       width="444.67081"
       id="rect3065" />
    <g
       transform="translate(-4.6199563,146.68361)"
       id="g3067">
      <g
         id="g3059"
         transform="translate(1.6334012,-41.651731)">
        <path
           style="fill:#f58e1d"
           d="m 59,270.26706 c -1.375,-0.85255 -3.625,-2.93079 -5,-4.61831 l -2.5,-3.06821 -0.267002,-87.04027 c -0.195327,-63.67493 0.04057,-87.783305 0.878754,-89.808215 0.630165,-1.52237 2.982105,-4.22237 5.226533,-6 L 61.419062,76.5 402.38485,76.245664 c 339.43496,-0.253193 340.98438,-0.245336 345.10638,1.75009 2.67578,1.295323 4.93171,3.412038 6.37686,5.983337 l 2.23628,3.978913 -0.0766,86.002776 c -0.0421,47.30152 -0.36719,86.79847 -0.7224,87.77099 -1.00837,2.76087 -4.19322,6.55376 -7.12877,8.48979 -2.54548,1.67878 -19.43232,1.76111 -344.67662,1.68042 C 96.425997,271.82581 61.244693,271.65885 59,270.26706 z M 431.36456,240.75 c 1.36185,-1.2375 6.84198,-10.125 12.17808,-19.75 5.33609,-9.625 12.74378,-22.9 16.46154,-29.5 14.88937,-26.43258 20.41373,-36.31015 24.04923,-43 2.09222,-3.85 6.08508,-11.05 8.87303,-16 5.15323,-9.14956 6.20518,-13.73042 3.82356,-16.65019 C 494.23793,112.7701 486.1872,109 482.12282,109 c -3.3714,0 -4.41364,0.52507 -6.45116,3.25 -2.2751,3.04269 -8.08565,13.02571 -14.98761,25.75 -3.17168,5.84725 -19.55535,34.95634 -33.23426,59.04779 -20.57713,36.24068 -20.52173,36.03661 -11.44979,42.1717 6.6269,4.48159 11.57457,4.97444 15.36456,1.53051 z m -191.75258,-3.34727 c 6.44656,-0.64586 15.64802,-5.03367 21.0588,-10.04209 5.04308,-4.66806 10.62936,-15.3528 12.99786,-24.86064 2.50817,-10.06851 2.53346,-43.06961 0.0405,-52.89955 -2.07498,-8.18194 -6.72086,-18.27244 -10.45776,-22.7135 -3.5435,-4.21121 -11.45361,-9.16284 -18.17272,-11.37588 -7.63388,-2.51435 -24.62117,-2.55053 -32.0787,-0.0683 -15.19949,5.05905 -23.61361,14.53006 -28.47991,32.05727 -2.57007,9.25675 -3.20651,38.32589 -1.10565,50.5 2.93863,17.02881 10.34972,29.23929 21.07635,34.72526 11.27356,5.7657 16.84849,6.50817 35.12119,4.67747 z M 220.71861,208.68954 C 215.79435,206.74613 214.5,199.94211 214.5,176 c 0,-24.85595 1.22541,-30.77572 6.78695,-32.7868 4.55137,-1.6458 12.20148,-1.5291 15.61915,0.23824 C 241.3775,145.7637 244,157.79636 244,176 c 0,18.20364 -2.6225,30.2363 -7.0939,32.54856 -3.23262,1.67165 -12.11305,1.74899 -16.18749,0.14098 z M 339.221,237.56471 c 2.59655,-0.28517 7.55704,-1.80442 11.0233,-3.3761 17.57844,-7.97044 25.76248,-26.50313 25.75773,-58.32814 -0.004,-28.61231 -6.13336,-45.45485 -20.00203,-54.96491 -7.72963,-5.30037 -15.32765,-7.29413 -27.5,-7.21611 -19.40792,0.12439 -32.80012,7.6865 -39.78755,22.46666 -5.3726,11.36437 -6.18605,16.60506 -6.18605,39.85389 0,23.73188 0.86852,29.03489 6.61826,40.40968 6.38368,12.62892 17.02425,19.82493 31.85534,21.54316 6.32896,0.73323 8.41572,0.68878 18.221,-0.38813 z m -18.19604,-28.84654 c -1.50314,-0.76057 -3.25921,-3.20904 -4.472,-6.23526 -1.77953,-4.44034 -1.99697,-7.32396 -1.99697,-26.48291 0,-19.15895 0.21744,-22.04257 1.99697,-26.48291 1.21279,-3.02622 2.96886,-5.47469 4.472,-6.23526 C 323.83555,141.8597 336,141.53602 336,142.88337 c 0,0.48585 0.83395,1.10145 1.85322,1.368 1.31044,0.34268 2.40876,2.50027 3.75,7.36663 2.70995,9.83238 2.73461,38.84339 0.0413,48.61137 -1.55423,5.63684 -2.35035,6.97625 -4.90364,8.25 -3.67888,1.83527 -12.30186,1.96629 -15.71594,0.2388 z M 114.81336,234.25 c 0.31217,-3.23765 0.29601,-3.25 -4.25,-3.25 -2.50985,0 -4.54632,-0.3375 -4.5255,-0.75 0.0208,-0.4125 2.04582,-2.32291 4.5,-4.24536 3.65288,-2.86143 4.46214,-4.08562 4.46214,-6.75 0,-4.0746 -2.57661,-4.39867 -6,-0.75464 -2.31539,2.46462 -5,3.33514 -5,1.62132 0,-1.64371 -6.003304,-3.38247 -9.640545,-2.79223 C 88.197508,218.32904 87,220.22619 87,228.98832 c 0,4.22309 0.312452,7.9908 0.694338,8.37269 0.381887,0.38188 6.569387,0.56938 13.750002,0.41666 L 114.5,237.5 z m -22.284937,-4.20401 c -0.324287,-0.52471 -0.302061,-2.09971 0.04939,-3.5 C 93.078194,224.55231 93.844104,224 96.108408,224 98.746418,224 99,224.30694 99,227.5 c 0,3.20661 -0.246526,3.5 -2.940983,3.5 -1.617541,0 -3.206308,-0.42931 -3.530594,-0.95401 z m 420.956517,4.4339 C 523.53563,228.1919 527.6944,216.98583 526.65216,199 526.0443,188.51012 524.27372,182.35872 520.40069,177.2809 509.20854,162.60725 480.62026,164.22981 472.49234,180 c -6.02772,11.6953 -6.03601,35.1296 -0.0161,45.5 5.56071,9.57932 12.04879,12.61653 26.1347,12.2342 9.24164,-0.25083 10.52047,-0.53063 14.874,-3.25431 z M 493.88352,216.35965 C 492.14585,214.26588 491.38313,194.645 492.888,190.75 c 0.87897,-2.27499 1.66804,-2.75 4.5682,-2.75 2.97129,0 3.62293,0.41921 4.27475,2.75 1.36767,4.89055 0.9229,23.75837 -0.60339,25.59684 -1.75838,2.11803 -5.49138,2.12464 -7.24404,0.0128 z M 169.49659,233.75 c 1.44153,-1.2436 3.02132,-4.03916 3.53191,-6.25 1.15313,-4.99307 1.19113,-96.41227 0.0425,-102.35763 -1.47375,-7.62846 -3.3726,-8.64237 -16.1854,-8.64237 -10.80565,0 -11.11259,0.0625 -13.40814,2.73126 -1.29213,1.5022 -2.62844,4.6522 -2.96956,7 -0.34112,2.34781 -0.48246,26.31874 -0.31408,53.26874 0.37999,60.8203 -1.02263,56.16834 17.00038,56.384 8.70673,0.10418 9.95991,-0.1132 12.30235,-2.134 z m 392.43189,0.78699 c 1.55604,-0.80466 3.22119,-2.26716 3.70034,-3.25 0.47915,-0.98285 1.09618,-13.83353 1.37118,-28.55708 l 0.5,-26.77008 7.91893,11.27008 c 4.35541,6.19855 11.06612,15.54509 14.91267,20.77009 21.48983,29.19086 20.08679,27.99074 32.72984,27.99626 9.28139,0.004 11.94954,-1.26474 13.99982,-6.65739 1.25739,-3.30719 1.24179,-104.41159 -0.0166,-107.72147 -1.67492,-4.40538 -5.15712,-5.82753 -14.27976,-5.83192 -4.54568,-0.002 -9.47501,0.47364 -10.95407,1.0574 -4.97404,1.96318 -5.27338,3.64175 -5.8108,32.58513 l -0.5,26.92802 -13.9399,-19.42802 c -19.80994,-27.60907 -28.30806,-38.72276 -30.511,-39.90173 -2.45363,-1.31315 -17.10313,-1.33643 -20.53237,-0.0326 -5.49787,2.09029 -5.59387,3.18982 -5.29251,60.6185 l 0.27578,52.55298 3.26578,2.91744 c 3.06739,2.74022 3.78416,2.91744 11.79966,2.91744 5.53393,0 9.52843,-0.5143 11.36304,-1.46301 z m 154.01276,-0.007 C 719.28692,232.80027 721,228.55703 721,222 c 0,-6.46549 -1.53537,-10.29432 -4.93283,-12.30125 C 713.67249,208.28418 710.41516,208 696.59571,208 L 680,208 l 0,-41.59887 c 0,-46.05058 -0.11476,-46.96338 -6.22221,-49.49317 -4.75455,-1.9694 -18.66824,-1.37749 -21.77299,0.92626 -5.01016,3.71757 -4.97434,3.30521 -4.99006,57.4479 -0.0158,54.53459 0.0731,55.56473 5.10213,59.08719 2.02391,1.4176 6.16054,1.63069 31.6553,1.63069 23.84323,0 29.85856,-0.27481 32.16907,-1.46962 z M 115,210.01905 c 0,-2.34569 -0.53277,-3.11466 -2.5,-3.60841 -2.26809,-0.56925 -2.5,-1.11271 -2.5,-5.85853 0,-4.6094 0.29711,-5.36645 2.5,-6.37016 1.86372,-0.84916 2.5,-1.90806 2.5,-4.16051 0,-1.7828 -0.51244,-2.9966 -1.25,-2.96086 -0.6875,0.0333 -6.875,2.20434 -13.75,4.82447 -11.930044,4.54667 -12.513728,4.90116 -12.801065,7.77459 -0.367923,3.67929 0.345945,4.2433 9.801065,7.74354 4.125,1.52706 9.075,3.38786 11,4.13511 5.62605,2.18396 7,1.88576 7,-1.51924 z m -15.5,-8.44152 -3,-1.33225 2.8151,-1.12264 C 103.65387,197.39237 105,197.71852 105,200.5 c 0,2.79997 -1.12506,3.02038 -5.5,1.07753 z m 325.00496,-19.4767 c 5.80716,-2.56878 9.0762,-5.96377 12.23352,-12.70482 C 439.32631,163.87084 439.5,162.65089 439.5,150 c 0,-14.81026 -0.93956,-19.3756 -5.33421,-25.91908 -3.71003,-5.52409 -9.27708,-8.74082 -17.3629,-10.03253 -17.21393,-2.74994 -29.56532,4.23566 -33.50876,18.95161 -1.65603,6.17991 -1.58879,25.30411 0.11143,31.69013 2.77897,10.4378 10.27762,17.69786 20.09444,19.45509 5.83973,1.04532 16.32783,0.0245 21.00496,-2.04439 z m -17.46978,-20.03509 c -1.31188,-2.45127 -1.35802,-22.08639 -0.0599,-25.50064 1.23195,-3.24028 6.37568,-3.64642 7.98957,-0.63084 1.48712,2.77871 1.34864,25.35228 -0.16482,26.86574 -1.90147,1.90147 -6.59158,1.45796 -7.76482,-0.73426 z M 114.5,174.77552 c 0,-7.74646 -0.25534,-8.97956 -2.27778,-11 -2.03428,-2.03227 -3.24615,-2.27552 -11.33658,-2.27552 -8.685872,0 -9.158163,0.11551 -11.472224,2.80576 C 87.309565,166.75164 87,168.10914 87,174.8891 c 0,4.27766 0.312452,8.09002 0.694338,8.47191 0.381887,0.38188 6.569387,0.56938 13.750002,0.41666 L 114.5,183.5 z M 92.894037,176.25 c -0.359113,-2.54179 0.48138,-6.86176 1.456221,-7.48469 1.874595,-1.19787 12.149252,-0.8658 13.449742,0.43469 0.66,0.66 1.2,2.685 1.2,4.5 l 0,3.3 -8,0 c -4.4,0 -8.047683,-0.3375 -8.105963,-0.75 z M 114.25,155.01402 C 114.6625,155.00631 115,153.65 115,152 c 0,-1.65 -0.3375,-3.0029 -0.75,-3.00644 -0.4125,-0.004 -6.15,-0.14351 -12.75,-0.31106 -6.6,-0.16754 -12.5625,-0.11649 -13.25,0.11343 -1.91117,0.63917 -1.569638,5.99505 0.406885,6.38075 0.911287,0.17782 6.873787,0.21713 13.250005,0.0873 6.37621,-0.12979 11.93061,-0.24229 12.34311,-0.25 z m -4.26391,-13.76557 c 4.17357,-2.09326 5.98443,-5.34568 5.98443,-10.74845 0,-8.19169 -5.08016,-12.4956 -14.75264,-12.49845 C 90.94311,117.99853 86,122.29472 86,131.22783 c 0,5.10596 2.070028,8.46019 6.378302,10.33525 4.460313,1.94123 13.429538,1.78096 17.607788,-0.31463 z M 93.75,134.9199 c -2.242523,-1.30615 -2.285333,-6.24171 -0.07333,-8.45372 2.143839,-2.14384 13.93378,-1.69485 15.37648,0.58557 1.40697,2.22395 1.11825,5.63399 -0.62458,7.37682 -1.81173,1.81173 -11.835527,2.14725 -14.67857,0.49133 z"
           id="path3063"
           inkscape:connector-curvature="0"
           sodipodi:nodetypes="sscssscssscssssssssssssssssscsssssssssccssssssssssssssssscsssssssssccsscsssssscscsssssssssssssscsssscccssssssscccsscssssscsscsssscsscccssscssssssccssssscsssssscsssssssssssscsssccssssscscssssscsscscssssccsssssssssss" />
        <path
           style="fill:#412d04"
           d="M 87.694338,237.36101 C 87.312452,236.97912 87,233.21141 87,228.98832 c 0,-8.76213 1.197508,-10.65928 7.359455,-11.65923 3.637241,-0.59024 9.640545,1.14852 9.640545,2.79223 0,1.71382 2.68461,0.8433 5,-1.62132 3.42339,-3.64403 6,-3.31996 6,0.75464 0,2.66438 -0.80926,3.88857 -4.46214,6.75 -2.45418,1.92245 -4.47918,3.83286 -4.5,4.24536 -0.0208,0.4125 2.01565,0.75 4.5255,0.75 4.54601,0 4.56217,0.0123 4.25,3.25 l -0.31336,3.25 -13.05566,0.27767 c -7.180615,0.15272 -13.368115,-0.0348 -13.750002,-0.41666 z M 99,227.5 c 0,-3.19306 -0.253582,-3.5 -2.891592,-3.5 -2.264304,0 -3.030214,0.55231 -3.530594,2.54599 C 91.723026,229.95173 92.54234,231 96.059017,231 98.753474,231 99,230.70661 99,227.5 z m 439.76578,5.58256 -3.26578,-2.91744 -0.27578,-52.55298 c -0.30136,-57.42868 -0.20536,-58.52821 5.29251,-60.6185 3.42924,-1.30379 18.07874,-1.28051 20.53237,0.0326 2.20294,1.17897 10.70106,12.29266 30.511,39.90173 L 605.5,176.35603 606,149.42801 c 0.53742,-28.94338 0.83676,-30.62195 5.8108,-32.58513 1.47906,-0.58376 6.40839,-1.05959 10.95407,-1.0574 9.12264,0.004 12.60484,1.42654 14.27976,5.83192 1.25842,3.30988 1.27402,104.41428 0.0166,107.72147 -2.05028,5.39265 -4.71843,6.66144 -13.99982,6.65739 -12.64305,-0.006 -11.24001,1.1946 -32.72984,-27.99626 -3.84655,-5.225 -10.55726,-14.57154 -14.91267,-20.77009 L 567.5,175.95983 567,202.72991 c -0.275,14.72355 -0.89203,27.57423 -1.37118,28.55708 -1.61399,3.31064 -6.09615,4.71301 -15.06338,4.71301 -8.0155,0 -8.73227,-0.17722 -11.79966,-2.91744 z m 113.35109,1.28675 c -5.02901,-3.52246 -5.11796,-4.5526 -5.10213,-59.08719 0.0157,-54.14269 -0.0201,-53.73033 4.99006,-57.4479 3.10475,-2.30375 17.01844,-2.89566 21.77299,-0.92626 6.10745,2.52979 6.22221,3.44259 6.22221,49.49317 L 680,208 l 16.59571,0 c 18.47896,0 21.44348,0.80505 23.37575,6.34797 1.3502,3.87318 1.31075,11.54403 -0.0799,15.53319 -2.03892,5.84885 -3.63265,6.11884 -36.11941,6.11884 -25.49476,0 -29.63139,-0.21309 -31.6553,-1.63069 z M 108,211.53829 c -1.925,-0.74725 -6.875,-2.60805 -11,-4.13511 -9.45512,-3.50024 -10.168988,-4.06425 -9.801065,-7.74354 0.287337,-2.87343 0.871021,-3.22792 12.801065,-7.77459 6.875,-2.62013 13.0625,-4.79115 13.75,-4.82447 0.73756,-0.0357 1.25,1.17806 1.25,2.96086 0,2.25245 -0.63628,3.31135 -2.5,4.16051 -2.20289,1.00371 -2.5,1.76076 -2.5,6.37016 0,4.74582 0.23191,5.28928 2.5,5.85853 1.96723,0.49375 2.5,1.26272 2.5,3.60841 0,3.405 -1.37395,3.7032 -7,1.51924 z M 105,200.5 c 0,-2.78148 -1.34613,-3.10763 -5.6849,-1.37736 l -2.8151,1.12264 3,1.33225 c 4.37494,1.94285 5.5,1.72244 5.5,-1.07753 z M 87.694338,183.36101 C 87.312452,182.97912 87,179.16676 87,174.8891 c 0,-6.77996 0.309565,-8.13746 2.413416,-10.58334 2.314061,-2.69025 2.786352,-2.80576 11.472224,-2.80576 8.09043,0 9.3023,0.24325 11.33658,2.27552 2.02244,2.02044 2.27778,3.25354 2.27778,11 l 0,8.72448 -13.05566,0.27767 c -7.180615,0.15272 -13.368115,-0.0348 -13.750002,-0.41666 z M 109,173.7 c 0,-1.815 -0.54,-3.84 -1.2,-4.5 -1.30049,-1.30049 -11.575147,-1.63256 -13.449742,-0.43469 -0.974841,0.62293 -1.815334,4.9429 -1.456221,7.48469 C 92.952317,176.6625 96.6,177 101,177 l 8,0 z M 88.656885,155.17668 c -1.976523,-0.3857 -2.318055,-5.74158 -0.406885,-6.38075 0.6875,-0.22992 6.65,-0.28097 13.25,-0.11343 6.6,0.16755 12.3375,0.30752 12.75,0.31106 0.4125,0.004 0.75,1.35644 0.75,3.00644 0,1.65 -0.3375,3.00631 -0.75,3.01402 -0.4125,0.008 -5.9669,0.12021 -12.34311,0.25 -6.376218,0.12979 -12.338718,0.0905 -13.250005,-0.0873 z m 3.721417,-13.6136 C 88.070028,139.68802 86,136.33379 86,131.22783 c 0,-8.93311 4.94311,-13.2293 15.21788,-13.22628 9.67248,0.003 14.75264,4.30676 14.75264,12.49845 0,5.40277 -1.81086,8.65519 -5.98443,10.74845 -4.17825,2.09559 -13.147475,2.25586 -17.607788,0.31463 z m 16.050268,-7.13451 c 1.74283,-1.74283 2.03155,-5.15287 0.62458,-7.37682 -1.4427,-2.28042 -13.232637,-2.72941 -15.376476,-0.58557 -2.212007,2.21201 -2.169197,7.14757 0.07333,8.45372 2.843047,1.65592 12.866836,1.3204 14.678566,-0.49133 z"
           id="path3061"
           inkscape:connector-curvature="0"
           sodipodi:nodetypes="csssssscsscscsssssscsssscsscsscsscsssscsssscssssccsssscsssssssscsscssssscscssssscscsscscsccsscssssssss" />
      </g>
    </g>
  </g>
</svg>
