<svg width="16" height="16" viewBox="0 0 16 16" fill="none" xmlns="http://www.w3.org/2000/svg">
<path d="M8 11C7.48344 11 6.96688 10.8306 6.52625 10.4872L0 5.4125V12.5C0 13.3281 0.671562 14 1.5 14H14.5C15.3284 14 16 13.3284 16 12.5V5.4125L9.475 10.4906C9.03438 10.8313 8.51562 11 8 11ZM0.509063 4.54063L7.14031 9.7C7.64625 10.0938 8.355 10.0938 8.86094 9.7L15.4922 4.54063C15.7844 4.29063 16 3.90625 16 3.5C16 2.67156 15.3281 2 14.5 2H1.5C0.671562 2 0 2.67156 0 3.5C0 3.90625 0.187813 4.29063 0.509063 4.54063Z" fill="black"/>
</svg>
