<svg width="14" height="14" viewBox="0 0 14 14" fill="none" xmlns="http://www.w3.org/2000/svg">
<g clip-path="url(#clip0_829_2630)">
<path d="M13.3608 10.158C12.7802 9.56136 11.1298 8.44375 10.0482 8.44375C9.79763 8.44375 9.5789 8.49943 9.39995 8.61477C8.87104 8.95284 8.44951 9.21534 8.24669 9.21534C8.13534 9.21534 8.01604 9.11591 7.75358 8.8892L7.70983 8.84943C6.98209 8.21705 6.82699 8.05398 6.54465 7.75966L6.47306 7.68409C6.42137 7.63239 6.37762 7.58466 6.33388 7.54091C6.08732 7.28636 5.90837 7.10341 5.27606 6.3875L5.24822 6.35568C4.94599 6.01364 4.74715 5.79091 4.73522 5.62784C4.72329 5.46875 4.86248 5.21023 5.21641 4.72898C5.6459 4.1483 5.66181 3.43239 5.26811 2.60114C4.95395 1.94489 4.44094 1.31648 3.9876 0.763637L3.94783 0.715909C3.55811 0.238636 3.10476 0 2.59971 0C2.03899 0 1.57371 0.302273 1.32715 0.461364C1.30727 0.473295 1.28738 0.489204 1.2675 0.501136C0.714731 0.851136 0.313079 1.33239 0.161963 1.82159C-0.0647118 2.55739 -0.215828 3.51193 0.869824 5.49659C1.80834 7.21477 2.65936 8.36818 4.01146 9.75625C5.28402 11.0608 5.84871 11.4824 7.11332 12.3972C8.52109 13.4153 9.87318 14 10.8197 14C11.6985 14 12.3905 14 13.3767 12.8108C14.4107 11.5619 13.9812 10.7983 13.3608 10.158Z" fill="black"/>
</g>
<defs>
<clipPath id="clip0_829_2630">
<rect width="14" height="14" fill="white"/>
</clipPath>
</defs>
</svg>
