<?xml version="1.0" encoding="UTF-8"?>
<svg width="250px" height="150px" viewBox="0 0 250 110" version="1.1" xmlns="http://www.w3.org/2000/svg" xmlns:xlink="http://www.w3.org/1999/xlink">
    <!-- Generator: Sketch 58 (84663) - https://sketch.com -->
    <title>wwk_logo-250x160</title>
    <desc>Created with Sketch.</desc>
    <defs>
        <polygon id="path-1" points="0 0.252090909 247.411356 0.252090909 247.411356 93.9145455 0 93.9145455"></polygon>
    </defs>
    <g id="Page-1" stroke="none" stroke-width="1" fill="none" fill-rule="evenodd">
        <g id="Banners" transform="translate(-2251.000000, -693.000000)">
            <g id="Banners---old-sizes" transform="translate(1481.000000, 458.000000)">
                <rect id="Rectangle" stroke="#979797" x="0" y="0" width="1329" height="1125"></rect>
                <g id="wwk_logo-250x160" transform="translate(770.000000, 235.000000)">
                    <g id="Full-logo" transform="translate(1.000000, 33.000000)">
                        <g id="Logo-WebwinkelKeur-2019-(RGB)-OFFICIAL">
                            <path d="M123.791908,33.3628788 L120.462437,33.3628788 L117.288322,22.2082121 C117.151494,21.7211212 116.98046,21.0203939 116.776644,20.1017576 C116.569977,19.1859697 116.447402,18.5479091 116.404644,18.189 C116.319126,18.7373333 116.180874,19.4437576 115.98846,20.3125455 C115.797471,21.1841818 115.637839,21.8336364 115.508138,22.2580606 L112.409563,33.3628788 L109.081517,33.3628788 L106.661379,23.9984848 L104.204184,14.658303 L107.328414,14.658303 L110.002253,25.5580303 C110.421287,27.3084242 110.720598,28.852303 110.900184,30.1910909 C110.992828,29.4647273 111.133931,28.6557576 111.322069,27.7613333 C111.508782,26.8640606 111.679816,26.1391212 111.833747,25.5850909 L114.881011,14.658303 L117.915448,14.658303 L121.039678,25.6363636 C121.337563,26.6504242 121.653977,28.1686667 121.987494,30.1910909 C122.114345,28.9705152 122.422207,27.4180909 122.90823,25.5338182 L125.572092,14.658303 L128.669241,14.658303 L123.791908,33.3628788" id="Fill-1" fill="#1F2B2E"></path>
                            <path d="M137.158253,21.2354545 C136.201885,21.2354545 135.436506,21.5373939 134.86069,22.1441212 C134.283448,22.7494242 133.941379,23.6310303 133.828782,24.7903636 L140.256828,24.7903636 C140.239724,23.6224848 139.957517,22.7380303 139.411632,22.137 C138.865747,21.5359697 138.114621,21.2354545 137.158253,21.2354545 Z M137.708414,33.6178182 C135.50777,33.6178182 133.786023,32.9769091 132.543172,31.6936667 C131.301747,30.4118485 130.680322,28.6429394 130.680322,26.3897879 C130.680322,24.0796667 131.256138,22.2637576 132.409195,20.9406364 C133.560828,19.6189394 135.144322,18.9566667 137.158253,18.9566667 C139.02823,18.9566667 140.504828,19.5249394 141.589471,20.6586364 C142.67269,21.7951818 143.214299,23.3547273 143.214299,25.3415455 L143.214299,26.9666061 L133.777471,26.9666061 C133.82023,28.341 134.19223,29.3949394 134.892046,30.132697 C135.591862,30.8704545 136.578161,31.2407576 137.850943,31.2407576 C138.686161,31.2407576 139.465793,31.161 140.186989,31.0029091 C140.908184,30.8448182 141.68354,30.5841818 142.511632,30.2167273 L142.511632,32.6607273 C141.776184,33.0096667 141.033609,33.2560606 140.283908,33.4013333 C139.531356,33.5466061 138.674759,33.6178182 137.708414,33.6178182 L137.708414,33.6178182 Z" id="Fill-2" fill="#1F2B2E"></path>
                            <path d="M153.60892,21.4134848 C152.397425,21.4134848 151.523724,21.7709697 150.990667,22.4830909 C150.456184,23.1952121 150.181103,24.387303 150.165425,26.0593636 L150.165425,26.2630303 C150.165425,27.9863636 150.437655,29.234 150.98354,30.0045152 C151.530851,30.7778788 152.421655,31.1638485 153.66023,31.1638485 C154.726345,31.1638485 155.535908,30.7408485 156.086069,29.8962727 C156.63623,29.051697 156.91131,27.8325455 156.91131,26.2373939 C156.91131,23.0214545 155.810989,21.4134848 153.60892,21.4134848 Z M154.389977,18.9566667 C156.157333,18.9566667 157.532736,19.599 158.517609,20.8765455 C159.503908,22.1569394 159.997057,23.9514848 159.997057,26.2630303 C159.997057,28.5831212 159.498207,30.3890606 158.49908,31.6808485 C157.501379,32.9740606 156.113149,33.6178182 154.338667,33.6178182 C152.545655,33.6178182 151.154575,32.9754848 150.165425,31.6879697 L149.960184,31.6879697 L149.408598,33.3628788 L147.156644,33.3628788 L147.156644,13.4562424 L150.165425,13.4562424 L150.165425,18.189 C150.165425,18.5407879 150.146897,19.0592121 150.114115,19.7499697 C150.079908,20.4421515 150.054253,20.8808182 150.035724,21.0688182 L150.165425,21.0688182 C151.120368,19.6616667 152.528552,18.9566667 154.389977,18.9566667 L154.389977,18.9566667 Z" id="Fill-3" fill="#1F2B2E"></path>
                            <path d="M175.629609,33.3628788 L173.798115,26.7615152 C173.577195,26.0622121 173.175264,24.4385758 172.595172,21.8891818 L172.481149,21.8891818 C171.985149,24.1907576 171.593195,25.8243636 171.302437,26.7885758 L169.421057,33.3628788 L166.091586,33.3628788 L162.123586,19.2144545 L165.19508,19.2144545 L166.999494,26.1861212 C167.409977,27.9094545 167.700736,29.3849697 167.870345,30.6140909 L167.948736,30.6140909 C168.032828,29.9902727 168.163954,29.275303 168.337839,28.4691818 C168.514575,27.6644848 168.66423,27.0606061 168.792506,26.6589697 L170.943264,19.2144545 L174.24708,19.2144545 L176.333701,26.6589697 C176.461977,27.077697 176.623034,27.7171818 176.814023,28.5774242 C177.006437,29.4405152 177.119034,30.1099091 177.153241,30.5870303 L177.255862,30.5870303 C177.384138,29.5387879 177.682023,28.0718182 178.152368,26.1861212 L179.982437,19.2144545 L183.004046,19.2144545 L179.008966,33.3628788 L175.629609,33.3628788" id="Fill-4" fill="#1F2B2E"></path>
                            <path d="M185.961517,33.3628788 L188.970299,33.3628788 L188.970299,19.2144545 L185.961517,19.2144545 L185.961517,33.3628788 Z M185.781931,15.4658485 C185.781931,14.9274848 185.930161,14.5144545 186.22377,14.2239091 C186.518805,13.9347879 186.939264,13.7895152 187.483724,13.7895152 C188.013931,13.7895152 188.427264,13.9347879 188.719448,14.2239091 C189.014483,14.5144545 189.162713,14.9274848 189.162713,15.4658485 C189.162713,15.9771515 189.014483,16.3802121 188.719448,16.6736061 C188.427264,16.9684242 188.013931,17.1151212 187.483724,17.1151212 C186.939264,17.1151212 186.518805,16.9684242 186.22377,16.6736061 C185.930161,16.3802121 185.781931,15.9771515 185.781931,15.4658485 L185.781931,15.4658485 Z" id="Fill-5" fill="#1F2B2E"></path>
                            <path d="M206.253333,33.3628788 L203.233149,33.3628788 L203.233149,24.6636061 C203.233149,23.5726364 203.013655,22.7579697 202.574667,22.2196061 C202.134253,21.6840909 201.435862,21.4134848 200.479494,21.4134848 C199.208138,21.4134848 198.278851,21.7894848 197.690207,22.5400606 C197.100138,23.2920606 196.806529,24.5482424 196.806529,26.314303 L196.806529,33.3628788 L193.797747,33.3628788 L193.797747,19.2144545 L196.152322,19.2144545 L196.575632,21.0688182 L196.728138,21.0688182 C197.155724,20.3951515 197.761471,19.875303 198.546805,19.5078485 C199.332138,19.1418182 200.202989,18.9566667 201.157931,18.9566667 C204.555816,18.9566667 206.253333,20.6842727 206.253333,24.1394848 L206.253333,33.3628788" id="Fill-6" fill="#1F2B2E"></path>
                            <polyline id="Fill-7" fill="#1F2B2E" points="213.871494 25.8927273 215.574713 23.7691818 219.850575 19.2144545 223.319724 19.2144545 217.622851 25.2902727 223.678897 33.3628788 220.145609 33.3628788 215.598943 27.1588788 213.947034 28.5147576 213.947034 33.3628788 210.965333 33.3628788 210.965333 13.4562424 213.947034 13.4562424 213.947034 23.1667273 213.794529 25.8927273 213.871494 25.8927273"></polyline>
                            <path d="M232.115172,21.2354545 C231.157379,21.2354545 230.393425,21.5373939 229.817609,22.1441212 C229.240368,22.7494242 228.896874,23.6310303 228.785701,24.7903636 L235.212322,24.7903636 C235.195218,23.6224848 234.914437,22.7380303 234.367126,22.137 C233.822667,21.5359697 233.070115,21.2354545 232.115172,21.2354545 Z M232.663908,33.6178182 C230.463264,33.6178182 228.741517,32.9769091 227.498667,31.6936667 C226.257241,30.4118485 225.635816,28.6429394 225.635816,26.3897879 C225.635816,24.0796667 226.211632,22.2637576 227.36469,20.9406364 C228.517747,19.6189394 230.099816,18.9566667 232.115172,18.9566667 C233.983724,18.9566667 235.460322,19.5249394 236.544966,20.6586364 C237.628184,21.7951818 238.169793,23.3547273 238.169793,25.3415455 L238.169793,26.9666061 L228.734391,26.9666061 C228.777149,28.341 229.149149,29.3949394 229.84754,30.132697 C230.548782,30.8704545 231.53508,31.2407576 232.806437,31.2407576 C233.641655,31.2407576 234.421287,31.161 235.142483,31.0029091 C235.863678,30.8448182 236.639034,30.5841818 237.467126,30.2167273 L237.467126,32.6607273 C236.733103,33.0096667 235.989103,33.2560606 235.239402,33.4013333 C234.486851,33.5466061 233.630253,33.6178182 232.663908,33.6178182 L232.663908,33.6178182 Z" id="Fill-8" fill="#1F2B2E"></path>
                            <polygon id="Fill-9" fill="#1F2B2E" points="242.113563 33.3628788 245.12092 33.3628788 245.12092 13.4562424 242.113563 13.4562424"></polygon>
                            <polyline id="Fill-10" fill="#1F2B2E" points="140.923862 81.5250606 131.371586 81.5250606 120.978391 64.8201212 117.423724 67.3695152 117.423724 81.5250606 109.010253 81.5250606 109.010253 41.8798485 117.423724 41.8798485 117.423724 60.0204242 120.734667 55.3574545 131.479908 41.8798485 140.814115 41.8798485 126.974575 59.4250909 140.923862 81.5250606"></polyline>
                            <polyline id="Fill-11" fill="#1F2B2E" points="167.655126 81.5250606 144.80492 81.5250606 144.80492 41.8798485 167.655126 41.8798485 167.655126 48.7674848 153.216966 48.7674848 153.216966 57.4724545 166.650299 57.4724545 166.650299 64.3600909 153.216966 64.3600909 153.216966 74.5818788 167.655126 74.5818788 167.655126 81.5250606"></polyline>
                            <path d="M207.114207,41.8798485 L207.114207,67.533303 C207.114207,70.4615455 206.457149,73.0280303 205.145885,75.2327576 C203.833195,77.4389091 201.938989,79.1294848 199.460414,80.3044848 C196.981839,81.4794848 194.050023,82.0662727 190.667816,82.0662727 C185.566713,82.0662727 181.604414,80.7616667 178.782345,78.1481818 C175.960276,75.5361212 174.549241,71.9612727 174.549241,67.4236364 L174.549241,41.8798485 L182.934207,41.8798485 L182.934207,66.1489394 C182.934207,69.2053636 183.549931,71.445697 184.779954,72.8742121 C186.008552,74.3027273 188.045287,75.0162727 190.88446,75.0162727 C193.633839,75.0162727 195.629241,74.2984545 196.869241,72.8599697 C198.107816,71.4243333 198.727816,69.1683333 198.727816,66.0948182 L198.727816,41.8798485 L207.114207,41.8798485" id="Fill-12" fill="#1F2B2E"></path>
                            <g id="Group-16">
                                <mask id="mask-2" fill="white">
                                    <use xlink:href="#path-1"></use>
                                </mask>
                                <g id="Clip-14"></g>
                                <path d="M224.129287,59.4777879 L226.843034,59.4777879 C229.501195,59.4777879 231.465241,59.0348485 232.730897,58.1503939 C233.997977,57.2645152 234.63223,55.8716061 234.63223,53.9730909 C234.63223,52.0945152 233.983724,50.7571515 232.690989,49.9595758 C231.396828,49.1648485 229.394299,48.7674848 226.679126,48.7674848 L224.129287,48.7674848 L224.129287,59.4777879 Z M224.129287,66.3127273 L224.129287,81.5250606 L215.715816,81.5250606 L215.715816,41.8798485 L227.276322,41.8798485 C232.668184,41.8798485 236.656138,42.8597273 239.24446,44.8223333 C241.831356,46.7820909 243.125517,49.7616061 243.125517,53.7566061 C243.125517,56.0880909 242.482713,58.1632121 241.197103,59.9791212 C239.91292,61.7978788 238.095678,63.220697 235.743954,64.2504242 C241.714483,73.1633333 245.604092,78.9215455 247.411356,81.5250606 L238.078575,81.5250606 L228.606115,66.3127273 L224.129287,66.3127273 L224.129287,66.3127273 Z" id="Fill-13" fill="#1F2B2E" mask="url(#mask-2)"></path>
                                <path d="M77.5883678,11.6844848 C68.8656092,24.5767273 59.510023,44.462 54.2777931,61.8477273 C53.6378391,63.9755455 51.0423908,65.2616364 48.9757241,65.4681515 C47.6074483,65.6105758 45.2471724,65.2986667 44.4946207,63.8915152 C43.5482299,62.1069394 42.6574253,60.2967273 41.778023,58.4751212 C41.3946207,57.6789697 41.0069425,56.8870909 40.6050115,56.0980606 L40.5408736,55.9698788 C40.4396782,55.7861515 40.3384828,55.595303 40.2330115,55.4101515 C40.0534253,55.0882727 39.8681379,54.760697 39.6771494,54.4416667 C38.8134253,52.9519091 37.780092,51.564697 36.5985287,50.3099394 L36.4075402,50.1190909 C36.2906667,50.0208182 36.178069,49.919697 36.0611954,49.8228485 C35.7690115,49.5864242 35.4754023,49.3485758 35.1675402,49.1320909 C34.5247356,48.692 33.8548506,48.2917879 33.1635862,47.9328788 C30.7249195,46.6752727 31.7582529,43.4265758 33.356,42.0365152 C35.4497471,40.2106364 38.4613793,39.8787879 40.9028966,41.2076061 C43.9914943,42.7885152 46.539908,45.3236667 48.4184368,48.2034848 C51.6894713,39.5711515 55.5577011,31.1026061 60.0701609,23.0171818 C56.1563218,20.8722727 51.6794943,19.6303333 46.9090575,19.6303333 C31.7368736,19.6303333 19.3938851,31.9642727 19.3938851,47.1267576 C19.3938851,62.2863939 31.7368736,74.6203333 46.9090575,74.6203333 C62.0798161,74.6203333 74.4228046,62.2863939 74.4228046,47.1267576 C74.4228046,43.0035758 73.5049195,39.0940303 71.8715402,35.5804242 C73.5804598,32.0867576 75.3478161,28.7184242 77.1337011,25.5480606 C81.497931,31.6352727 84.0777011,39.0826364 84.0777011,47.1267576 C84.0777011,52.9846667 82.7094253,58.5263939 80.2821609,63.4585455 C78.730023,66.3725455 79.1989425,70.2892121 79.1989425,70.2892121 L79.196092,70.2920606 C79.5296092,72.7346364 79.6878161,75.2840303 79.761931,77.4417576 C79.8474483,79.8928788 77.9803218,79.9028485 77.3246897,79.8772121 C74.8874483,79.7860606 72.4088736,79.4499394 70.4690575,79.1237879 L70.4662069,79.1237879 C66.9357701,78.7007879 64.3588506,79.9113939 64.3588506,79.9113939 C59.1522759,82.6900909 53.2116782,84.2681515 46.9090575,84.2681515 C26.4134253,84.2681515 9.73898851,67.6073636 9.73898851,47.1267576 C9.73898851,26.6461515 26.4134253,9.98251515 46.9090575,9.98251515 C53.4810575,9.98251515 59.6554023,11.7058485 65.0187586,14.7095758 C66.7818391,11.9622121 68.6503908,9.28748485 70.5930575,6.66972727 C63.6405057,2.59639394 55.5505747,0.252090909 46.9090575,0.252090909 C21.0016092,0.252090909 0,21.238303 0,47.1253333 C0,73.0137879 21.0016092,94 46.9090575,94 C52.8938391,94 58.6135172,92.8734242 63.8742529,90.8282121 C63.8742529,90.8282121 68.8413793,89.0778182 74.5496552,89.7999091 C77.8662989,90.3240303 82.1735172,90.8239394 86.5676782,90.8324848 C86.5676782,90.8324848 90.8506667,91.1116364 90.7451954,86.5811212 C90.7451954,86.5811212 90.8036322,81.8284242 89.6691034,74.3468788 C89.5294253,73.3712727 89.0262989,68.8122727 90.6824828,63.9470606 C90.797931,63.6493939 90.9062529,63.3488788 91.016,63.0483636 C91.0872644,62.8660606 91.169931,62.6908788 91.2297931,62.5014545 C91.4350345,61.8605455 91.6588046,61.3264545 91.769977,60.8137273 C93.0969195,56.4840303 93.8166897,51.8894242 93.8166897,47.1253333 C93.8166897,32.9640909 87.524046,20.2797879 77.5883678,11.6844848" id="Fill-15" fill="#E9098A" mask="url(#mask-2)"></path>
                            </g>
                            <path d="M46.9090575,9.98251515 C26.4134253,9.98251515 9.73898851,26.6461515 9.73898851,47.1267576 C9.73898851,67.6073636 26.4134253,84.2681515 46.9090575,84.2681515 C53.2116782,84.2681515 59.1522759,82.6900909 64.3588506,79.9113939 C64.3588506,79.9113939 66.9357701,78.7007879 70.4662069,79.1237879 L70.4690575,79.1237879 C72.4088736,79.4499394 74.8874483,79.7860606 77.3246897,79.8772121 C77.9803218,79.9028485 79.8474483,79.8928788 79.761931,77.4417576 C79.6878161,75.2840303 79.5296092,72.7346364 79.196092,70.2920606 L79.1989425,70.2892121 C79.1989425,70.2892121 78.730023,66.3725455 80.2821609,63.4585455 C82.7094253,58.5263939 84.0777011,52.9846667 84.0777011,47.1267576 C84.0777011,39.0826364 81.497931,31.6352727 77.1337011,25.5480606 C75.3478161,28.7184242 73.5804598,32.0867576 71.8715402,35.5804242 C73.5049195,39.0940303 74.4228046,43.0035758 74.4228046,47.1267576 C74.4228046,62.2863939 62.0798161,74.6203333 46.9090575,74.6203333 C31.7368736,74.6203333 19.3938851,62.2863939 19.3938851,47.1267576 C19.3938851,31.9642727 31.7368736,19.6303333 46.9090575,19.6303333 C51.6794943,19.6303333 56.1563218,20.8722727 60.0701609,23.0171818 C55.5577011,31.1026061 51.6894713,39.5711515 48.4184368,48.2034848 C46.539908,45.3236667 43.9914943,42.7885152 40.9028966,41.2076061 C38.4613793,39.8787879 35.4497471,40.2106364 33.356,42.0365152 C31.7582529,43.4265758 30.7249195,46.6752727 33.1635862,47.9328788 C33.8548506,48.2917879 34.5247356,48.692 35.1675402,49.1320909 C35.4754023,49.3485758 35.7690115,49.5864242 36.0611954,49.8228485 C36.178069,49.919697 36.2906667,50.0208182 36.4075402,50.1190909 L36.5985287,50.3099394 C37.780092,51.564697 38.8134253,52.9519091 39.6771494,54.4416667 C39.8681379,54.760697 40.0534253,55.0882727 40.2330115,55.4101515 C40.3384828,55.595303 40.4396782,55.7861515 40.5408736,55.9698788 L40.6050115,56.0980606 C41.0069425,56.8870909 41.3946207,57.6789697 41.778023,58.4751212 C42.6574253,60.2967273 43.5482299,62.1069394 44.4946207,63.8915152 C45.2471724,65.2986667 47.6074483,65.6105758 48.9757241,65.4681515 C51.0423908,65.2616364 53.6378391,63.9755455 54.2777931,61.8477273 C59.510023,44.462 68.8656092,24.5767273 77.5883678,11.6844848 C75.4205057,9.80875758 73.0816092,8.12815152 70.5930575,6.66972727 C68.6503908,9.28748485 66.7818391,11.9622121 65.0187586,14.7095758 C59.6554023,11.7058485 53.4810575,9.98251515 46.9090575,9.98251515" id="Fill-17" fill="#FFFFFF"></path>
                        </g>
                    </g>
                </g>
            </g>
        </g>
    </g>
</svg>