<?xml version="1.0" encoding="UTF-8"?> <svg xmlns="http://www.w3.org/2000/svg" width="296" height="80" viewBox="0 0 296 80" fill="none"><g clip-path="url(#clip0_14_28)"><path d="M102.894 27.5365H100.126L97.4878 18.2519C97.3725 17.8483 97.2283 17.2572 97.0553 16.5075C96.8823 15.7434 96.7814 15.21 96.7525 14.9216C96.6805 15.383 96.5651 15.9596 96.4065 16.6949C96.248 17.4158 96.1182 17.9636 96.0029 18.3096L93.4222 27.5509H90.6541L88.6502 19.7657L86.603 11.995H89.198L91.4182 21.0633C91.7643 22.5194 92.0093 23.8025 92.1679 24.9126C92.24 24.3071 92.3698 23.6295 92.5139 22.8942C92.6725 22.1445 92.8167 21.539 92.9465 21.0777L95.4839 11.995H98.0068L100.602 21.1209C100.847 21.9715 101.106 23.2258 101.395 24.9126C101.496 23.9034 101.755 22.6059 102.159 21.0344L104.379 11.995H106.96L102.909 27.5509L102.894 27.5365Z" fill="#1F2B2E"></path><path d="M114.457 27.7527C112.626 27.7527 111.198 27.2193 110.16 26.1525C109.122 25.0856 108.618 23.6151 108.618 21.7409C108.618 19.8666 109.094 18.3096 110.059 17.2139C111.011 16.1182 112.337 15.5704 114.01 15.5704C115.567 15.5704 116.792 16.0461 117.686 16.9832C118.58 17.9348 119.041 19.2323 119.041 20.8758V22.231H111.198C111.227 23.37 111.544 24.2494 112.121 24.8693C112.698 25.4893 113.52 25.792 114.586 25.792C115.278 25.792 115.927 25.7199 116.533 25.5902C117.138 25.4604 117.773 25.2442 118.465 24.9414V26.9742C117.859 27.2626 117.239 27.4644 116.619 27.5942C115.999 27.7095 115.278 27.7816 114.486 27.7816L114.457 27.7527ZM113.995 17.459C113.202 17.459 112.568 17.7041 112.092 18.2087C111.617 18.7133 111.328 19.4485 111.242 20.4145H116.59C116.576 19.4485 116.345 18.7133 115.884 18.2087C115.437 17.7041 114.803 17.459 114.01 17.459H113.995Z" fill="#1F2B2E"></path><path d="M128.311 15.5559C129.782 15.5559 130.921 16.0894 131.743 17.1562C132.564 18.2231 132.968 19.708 132.968 21.6399C132.968 23.5718 132.55 25.0712 131.728 26.1524C130.892 27.2337 129.739 27.7672 128.268 27.7672C126.798 27.7672 125.615 27.2337 124.794 26.1669H124.621L124.159 27.5653H122.285V10.9857H124.779V14.9216C124.779 15.2099 124.765 15.6424 124.736 16.2191C124.707 16.7958 124.693 17.1562 124.678 17.3148H124.779C125.572 16.147 126.74 15.5559 128.297 15.5559H128.311ZM127.663 17.6032C126.653 17.6032 125.933 17.9059 125.486 18.497C125.039 19.0881 124.808 20.0829 124.794 21.4669V21.6399C124.794 23.0672 125.024 24.1052 125.471 24.754C125.933 25.4028 126.668 25.7199 127.691 25.7199C128.585 25.7199 129.249 25.3739 129.71 24.6675C130.171 23.9611 130.402 22.9519 130.402 21.6255C130.402 18.9439 129.494 17.6176 127.663 17.6176V17.6032Z" fill="#1F2B2E"></path><path d="M145.972 27.5365L144.444 22.0436C144.257 21.4669 143.925 20.1117 143.449 17.9924H143.348C142.93 19.9099 142.613 21.2651 142.368 22.0724L140.811 27.5365H138.043L134.741 15.7722H137.293L138.793 21.5678C139.139 22.9951 139.369 24.235 139.513 25.2442H139.571C139.643 24.7252 139.744 24.1341 139.888 23.4565C140.032 22.7933 140.162 22.2887 140.263 21.9571L142.051 15.7578H144.79L146.52 21.9571C146.621 22.3031 146.765 22.8365 146.924 23.5574C147.082 24.2782 147.183 24.8261 147.212 25.2298H147.299C147.4 24.3647 147.659 23.1393 148.048 21.5678L149.577 15.7722H152.085L148.769 27.5365H145.958H145.972Z" fill="#1F2B2E"></path><path d="M154.406 12.6581C154.406 12.2112 154.536 11.8652 154.781 11.6201C155.026 11.375 155.372 11.2597 155.833 11.2597C156.295 11.2597 156.612 11.375 156.857 11.6201C157.102 11.8652 157.232 12.2112 157.232 12.6581C157.232 13.0762 157.102 13.4222 156.857 13.6673C156.612 13.9124 156.266 14.0277 155.833 14.0277C155.401 14.0277 155.026 13.9124 154.781 13.6673C154.536 13.4222 154.406 13.0906 154.406 12.6581ZM157.059 27.5365H154.565V15.7722H157.059V27.5365Z" fill="#1F2B2E"></path><path d="M171.418 27.5365H168.91V20.2992C168.91 19.3909 168.722 18.7133 168.362 18.2664C168.001 17.8194 167.41 17.6032 166.617 17.6032C165.565 17.6032 164.786 17.9203 164.296 18.5403C163.806 19.1602 163.561 20.2127 163.561 21.6832V27.5509H161.067V15.7866H163.028L163.374 17.3292H163.503C163.864 16.767 164.368 16.3345 165.017 16.0317C165.666 15.729 166.387 15.5704 167.194 15.5704C170.02 15.5704 171.433 17.0121 171.433 19.8811V27.5509L171.418 27.5365Z" fill="#1F2B2E"></path><path d="M177.762 21.3227L179.175 19.5495L182.736 15.7578H185.619L180.89 20.8181L185.922 27.5365H182.981L179.203 22.3752L177.834 23.4997V27.5365H175.354V10.9857H177.834V19.0593L177.704 21.3227H177.762Z" fill="#1F2B2E"></path><path d="M193.375 27.7527C191.544 27.7527 190.117 27.2193 189.079 26.1525C188.041 25.0856 187.536 23.6151 187.536 21.7409C187.536 19.8666 188.012 18.3096 188.978 17.2139C189.93 16.1182 191.256 15.5704 192.928 15.5704C194.486 15.5704 195.711 16.0461 196.605 16.9832C197.499 17.9348 197.96 19.2323 197.96 20.8758V22.231H190.117C190.146 23.37 190.463 24.2494 191.04 24.8693C191.617 25.4893 192.438 25.792 193.505 25.792C194.197 25.792 194.846 25.7199 195.451 25.5902C196.057 25.4604 196.691 25.2442 197.383 24.9414V26.9742C196.778 27.2626 196.158 27.4644 195.538 27.5942C194.918 27.7095 194.197 27.7816 193.404 27.7816L193.375 27.7527ZM192.914 17.459C192.121 17.459 191.487 17.7041 191.011 18.2087C190.535 18.7133 190.247 19.4485 190.16 20.4145H195.509C195.495 19.4485 195.264 18.7133 194.803 18.2087C194.356 17.7041 193.721 17.459 192.928 17.459H192.914Z" fill="#1F2B2E"></path><path d="M203.727 27.5365H201.233V10.9857H203.727V27.5365Z" fill="#1F2B2E"></path><path d="M117.124 67.6014H109.18L100.544 53.7034L97.5888 55.8227V67.6014H90.5965V34.6297H97.5888V49.7243L100.342 45.8461L109.267 34.6297H117.023L105.518 49.2197L117.109 67.6014H117.124Z" fill="#1F2B2E"></path><path d="M139.34 67.6014H120.353V34.6297H139.34V40.3532H127.345V47.5906H138.504V53.3141H127.345V61.8202H139.34V67.6014Z" fill="#1F2B2E"></path><path d="M172.139 34.6297V55.9668C172.139 58.4033 171.591 60.537 170.51 62.368C169.429 64.199 167.843 65.6118 165.781 66.5922C163.72 67.5725 161.283 68.0627 158.472 68.0627C154.233 68.0627 150.946 66.9814 148.596 64.8045C146.246 62.6275 145.078 59.6576 145.078 55.8803V34.6297H152.042V54.8135C152.042 57.3509 152.546 59.2251 153.57 60.4073C154.594 61.5895 156.28 62.195 158.645 62.195C161.009 62.195 162.581 61.6039 163.619 60.4073C164.642 59.2107 165.161 57.3365 165.161 54.7847V34.6441H172.125L172.139 34.6297Z" fill="#1F2B2E"></path><path d="M186.282 54.9432V67.6014H179.29V34.6297H188.892C193.375 34.6297 196.691 35.4514 198.839 37.0806C200.988 38.7097 202.069 41.1894 202.069 44.5053C202.069 46.4516 201.535 48.1672 200.469 49.681C199.402 51.1948 197.888 52.377 195.942 53.2276C200.901 60.638 204.13 65.4244 205.644 67.6014H197.888L190.016 54.9432H186.297H186.282ZM186.282 49.2629H188.531C190.737 49.2629 192.381 48.8881 193.419 48.1528C194.471 47.4176 195.005 46.2642 195.005 44.6783C195.005 43.0925 194.471 41.9968 193.39 41.3336C192.309 40.6704 190.651 40.3388 188.387 40.3388H186.268V49.2485L186.282 49.2629Z" fill="#1F2B2E"></path><path d="M64.4873 9.51523C57.2355 20.2415 49.4648 36.7778 45.1108 51.2381C44.5774 53.0114 42.4148 54.0782 40.6992 54.2512C39.5603 54.3666 37.5996 54.107 36.9796 52.9393C36.1867 51.4543 35.4514 49.9549 34.7162 48.4412C34.399 47.778 34.0818 47.1148 33.7358 46.466L33.6781 46.3651C33.5916 46.2065 33.5051 46.0479 33.4186 45.9038C33.2745 45.6298 33.1159 45.3703 32.9573 45.0964C32.2364 43.8566 31.3858 42.7032 30.4055 41.6652L30.2469 41.5066C30.146 41.4201 30.0595 41.348 29.9586 41.2615C29.7135 41.0597 29.4684 40.8722 29.2089 40.6848C28.6754 40.3244 28.1132 39.9928 27.5509 39.69C25.5181 38.6376 26.3831 35.9416 27.7095 34.7882C29.454 33.2745 31.9481 32.9861 33.9809 34.0962C36.5471 35.4082 38.6664 37.5131 40.2235 39.9207C42.9483 32.741 46.1633 25.6911 49.9117 18.9728C46.6535 17.1851 42.9339 16.1615 38.9692 16.1615C26.3543 16.1615 16.1038 26.4264 16.1038 39.0269C16.1038 51.6273 26.3687 61.8922 38.9692 61.8922C51.5697 61.8922 61.8346 51.6273 61.8346 39.0269C61.8346 35.5956 61.0705 32.3518 59.7153 29.4251C61.1425 26.5129 62.5987 23.716 64.0836 21.0777C67.7167 26.138 69.8504 32.3374 69.8504 39.0269C69.8504 43.8998 68.7115 48.5132 66.6931 52.6077C65.41 55.0297 65.7992 58.288 65.7992 58.288C66.0732 60.3208 66.2029 62.4401 66.275 64.2422C66.3471 66.275 64.7901 66.2894 64.2422 66.275C62.2094 66.2029 60.1622 65.9146 58.5475 65.6407C55.6064 65.2946 53.4727 66.2894 53.4727 66.2894C49.1476 68.5961 44.2026 69.9081 38.9692 69.9081C21.9283 69.9081 8.07353 56.0533 8.07353 39.0124C8.07353 21.9715 21.9571 8.08794 38.9836 8.08794C44.4476 8.08794 49.5801 9.51523 54.035 12.0238C55.5055 9.73148 57.0481 7.51126 58.6628 5.33429C52.8816 1.9463 46.1633 0 38.9836 0C17.459 0 0 17.459 0 38.9836C0 60.5082 17.459 77.9672 38.9836 77.9672C43.9575 77.9672 48.7151 77.0301 53.0834 75.3289C53.0834 75.3289 57.2067 73.8728 61.9499 74.4783C64.7036 74.9108 68.2934 75.3289 71.9409 75.3433C71.9409 75.3433 75.5019 75.574 75.4154 71.8111C75.4154 71.8111 75.4586 67.8609 74.5215 61.6327C74.4062 60.8254 73.9881 57.0337 75.3577 52.9825C75.4586 52.7374 75.5451 52.4779 75.6316 52.2328C75.6893 52.0742 75.7614 51.9301 75.8046 51.7715C75.9777 51.2381 76.1651 50.7911 76.2516 50.373C77.3473 46.7688 77.9528 42.9483 77.9528 38.9836C77.9528 27.2049 72.7194 16.6516 64.4585 9.50081L64.4873 9.51523Z" fill="#E9098A"></path><path d="M38.9836 8.08795C21.9571 8.08795 8.08795 21.9571 8.08795 38.9836C8.08795 56.0101 21.9427 69.8793 38.9836 69.8793C44.217 69.8793 49.162 68.5673 53.4871 66.2606C53.4871 66.2606 55.6353 65.2514 58.5619 65.6118C60.1766 65.8857 62.2382 66.1597 64.2566 66.2462C64.8045 66.2606 66.3471 66.2462 66.2894 64.2134C66.2318 62.4113 66.102 60.2919 65.8137 58.2592C65.8137 58.2592 65.4244 55.0009 66.7075 52.5788C68.7259 48.47 69.8648 43.871 69.8648 38.998C69.8648 32.3085 67.7167 26.1092 64.098 21.0488C62.6131 23.6872 61.1426 26.4841 59.7297 29.3963C61.0849 32.3229 61.849 35.5668 61.849 38.998C61.849 51.6129 51.5841 61.8634 38.9836 61.8634C26.3831 61.8634 16.1182 51.5985 16.1182 38.998C16.1182 26.3976 26.3831 16.1326 38.9836 16.1326C42.9483 16.1326 46.6679 17.1707 49.9261 18.944C46.1777 25.6623 42.9627 32.7122 40.2379 39.8919C38.6808 37.4987 36.5615 35.3938 33.9953 34.0674C31.9625 32.9573 29.4684 33.2312 27.7239 34.7594C26.3976 35.9128 25.5325 38.6232 27.5653 39.6612C28.142 39.964 28.6899 40.2956 29.2233 40.656C29.4828 40.8434 29.7279 41.0308 29.973 41.2327C30.0739 41.3192 30.1604 41.3912 30.2613 41.4777L30.4199 41.6363C31.4003 42.6744 32.2653 43.8277 32.9717 45.0676C33.1303 45.3271 33.2889 45.601 33.4331 45.8749C33.5196 46.0335 33.6061 46.1921 33.6926 46.3363L33.7502 46.4372C34.0818 47.086 34.4134 47.7491 34.7306 48.4123C35.4659 49.9261 36.2011 51.4399 36.9941 52.9104C37.614 54.0782 39.5747 54.3377 40.7136 54.2224C42.4293 54.0494 44.5918 52.9825 45.1253 51.2092C49.4792 36.749 57.25 20.2127 64.5017 9.4864C62.6996 7.92936 60.7533 6.53091 58.6917 5.31989C57.077 7.49685 55.5199 9.71707 54.0638 12.0094C49.6089 9.51523 44.4765 8.07353 39.0124 8.07353L38.9836 8.08795Z" fill="white"></path><path d="M258.641 24.9558C258.266 24.7396 257.834 24.6819 257.387 24.7828C256.493 24.9703 256.089 25.5037 255.902 25.893C255.671 26.3975 255.614 26.9166 255.729 27.4212C255.873 28.0843 256.234 28.4159 256.507 28.5745C256.767 28.7331 257.07 28.8196 257.372 28.8196C257.502 28.8196 257.618 28.8196 257.747 28.7764C258.67 28.5745 259.074 28.0555 259.247 27.6518C259.477 27.1472 259.535 26.6282 259.42 26.1236C259.276 25.446 258.915 25.1144 258.627 24.9558H258.641Z" fill="#E9098A"></path><path d="M258.18 30.8236C257.762 30.5208 257.185 30.5929 256.781 30.6794C256.392 30.7659 256.104 30.9101 255.902 31.0975C255.671 31.3282 255.527 31.6598 255.469 32.1211L253.898 47.086C253.811 47.9366 253.725 48.3258 253.595 48.5277C253.538 48.4988 253.365 48.4123 253.062 48.1672C252.745 47.8933 252.341 47.778 251.966 47.8645C251.649 47.9366 251.346 48.124 251.101 48.4123C250.697 48.8304 250.553 49.2629 250.683 49.681C250.77 49.9549 250.928 50.2144 251.202 50.4739C251.62 50.892 252.096 51.1804 252.6 51.3534C252.932 51.4687 253.264 51.5264 253.595 51.5264C253.783 51.5264 253.985 51.512 254.172 51.4687C254.662 51.3678 255.109 51.1804 255.484 50.9353C255.916 50.647 256.248 50.2144 256.522 49.5945C256.767 49.0467 256.926 48.297 257.012 47.3166L258.627 32.0634C258.713 31.3714 258.439 30.9966 258.18 30.8091V30.8236Z" fill="#E9098A"></path><path d="M262.664 41.3768C263.01 41.5066 263.384 41.5643 263.774 41.5643C264.048 41.5643 264.322 41.5354 264.61 41.4777C265.187 41.348 265.792 41.0452 266.412 40.5839C266.83 40.2667 267.219 39.8486 267.609 39.3296C267.623 39.3584 267.652 39.3729 267.666 39.4017C267.983 39.791 268.387 40.0649 268.877 40.2235C269.339 40.3676 269.901 40.3676 270.506 40.2235C270.982 40.1225 271.328 39.8919 271.559 39.5459C271.761 39.2287 271.862 38.8827 271.833 38.5367C271.804 38.2051 271.689 37.9023 271.501 37.6428C271.227 37.2824 270.809 37.1382 270.348 37.2391C270.261 37.2536 270.204 37.268 270.175 37.268C270.16 37.1671 270.132 36.9364 270.175 36.4895L270.925 29.4684C271.025 28.7331 270.694 28.3727 270.478 28.2141C270.06 27.9113 269.512 27.9834 269.094 28.0699C268.704 28.1564 268.416 28.2862 268.2 28.5024C268.128 28.5745 268.07 28.6466 268.012 28.7475C267.911 28.7331 267.81 28.7043 267.71 28.6899C267.032 28.5745 266.369 28.5889 265.706 28.7187C264.74 28.9205 263.889 29.2954 263.197 29.8144C262.519 30.319 261.943 30.9533 261.496 31.6742C261.078 32.3662 260.746 33.1159 260.53 33.8944C260.314 34.6585 260.198 35.437 260.169 36.2011C260.141 36.9652 260.198 37.6717 260.342 38.306C260.501 39.0557 260.775 39.7045 261.164 40.2235C261.568 40.7857 262.072 41.175 262.678 41.3912L262.664 41.3768ZM264.062 38.3493C263.947 38.306 263.846 38.2195 263.745 38.0898C263.63 37.9312 263.529 37.6861 263.471 37.3833C263.399 37.0517 263.37 36.6336 263.37 36.1723C263.37 35.7109 263.442 35.2208 263.543 34.7162C263.644 34.2404 263.831 33.7791 264.062 33.3321C264.293 32.914 264.595 32.568 264.956 32.2653C265.316 31.9769 265.792 31.7751 266.34 31.6598C266.599 31.6021 266.859 31.5733 267.133 31.5733C267.248 31.5733 267.364 31.5733 267.479 31.5733C267.479 31.5733 267.493 31.5733 267.508 31.5733L267.205 34.3702C266.989 35.0333 266.758 35.6533 266.484 36.1867C266.167 36.8499 265.806 37.3689 265.446 37.7437C265.129 38.0753 264.812 38.2772 264.495 38.3348C264.307 38.3781 264.149 38.3781 264.019 38.3348L264.062 38.3493Z" fill="#E9098A"></path><path d="M273.678 37.5275C274.082 38.0897 274.586 38.479 275.192 38.6952C275.538 38.825 275.913 38.8827 276.302 38.8827C276.576 38.8827 276.85 38.8538 277.124 38.7962C277.7 38.6664 278.306 38.3637 278.926 37.9023C279.33 37.5851 279.733 37.167 280.123 36.648C280.137 36.6769 280.166 36.6913 280.18 36.7201C280.483 37.1094 280.901 37.3977 281.406 37.5419C281.867 37.6861 282.429 37.6861 283.035 37.5419C283.611 37.4121 283.929 37.1094 284.087 36.8643C284.289 36.5471 284.39 36.2011 284.361 35.8551C284.332 35.5235 284.231 35.2207 284.03 34.9612C283.756 34.6008 283.338 34.4566 282.876 34.5576C282.79 34.572 282.732 34.5864 282.703 34.5864C282.689 34.4855 282.66 34.2548 282.703 33.8079L283.453 26.7868C283.554 26.0515 283.222 25.6911 283.006 25.5325C282.588 25.2298 282.011 25.3018 281.607 25.3883C281.218 25.4749 280.93 25.6046 280.714 25.8209C280.642 25.8929 280.584 25.965 280.526 26.0659C280.425 26.0515 280.324 26.0227 280.223 26.0083C279.56 25.8929 278.883 25.9074 278.219 26.0371C277.254 26.239 276.403 26.6138 275.711 27.1328C275.019 27.6374 274.457 28.2718 274.01 28.9926C273.592 29.6846 273.26 30.4343 273.044 31.2128C272.828 31.9769 272.712 32.7554 272.683 33.5195C272.655 34.2836 272.712 34.9901 272.856 35.6244C273.015 36.3741 273.289 37.0229 273.678 37.5419V37.5275ZM276.605 35.6677C276.489 35.6244 276.389 35.5379 276.288 35.4082C276.172 35.2496 276.071 35.0045 276.014 34.7017C275.942 34.3701 275.913 33.9521 275.913 33.4907C275.913 33.0294 275.985 32.5392 276.086 32.0346C276.201 31.5588 276.374 31.0831 276.605 30.6506C276.835 30.2325 277.124 29.8865 277.499 29.5837C277.859 29.2954 278.335 29.0935 278.883 28.9638C279.142 28.9061 279.402 28.8773 279.676 28.8773C279.791 28.8773 279.906 28.8773 280.022 28.8773C280.022 28.8773 280.036 28.8773 280.05 28.8773L279.748 31.6742C279.531 32.3518 279.301 32.9573 279.027 33.4907C278.71 34.1539 278.349 34.6729 277.989 35.0477C277.672 35.3793 277.354 35.5812 277.037 35.6388C276.85 35.6821 276.691 35.6821 276.562 35.6388L276.605 35.6677Z" fill="#E9098A"></path><path d="M295.102 24.0908C295.03 23.8602 294.857 23.543 294.482 23.3556C294.222 23.1826 293.905 23.0672 293.502 22.9807C293.127 22.9086 292.709 22.9231 292.291 23.0096C291.901 23.0961 291.512 23.2402 291.152 23.4565C290.791 23.6583 290.445 23.9178 290.114 24.235C289.998 24.3359 289.897 24.4513 289.782 24.5666C289.695 24.3648 289.566 24.235 289.436 24.1485C289.018 23.8457 288.441 23.9178 288.037 24.0043C287.648 24.0908 287.36 24.235 287.144 24.4368C286.913 24.6675 286.783 24.9847 286.726 25.4605L285.731 35.2352C285.615 36.0137 286.077 36.4174 286.524 36.5183C286.697 36.5616 286.87 36.576 287.028 36.576C287.172 36.576 287.317 36.5616 287.461 36.5327C287.908 36.4318 288.225 36.2876 288.441 36.0714C288.686 35.8407 288.83 35.5235 288.859 35.1775L289.321 30.6217C289.494 29.973 289.71 29.3819 289.969 28.834C290.214 28.3006 290.503 27.8248 290.806 27.4067C291.108 27.0031 291.411 26.6859 291.714 26.4408C291.988 26.2246 292.262 26.0948 292.507 26.0371C292.622 26.0083 292.737 25.9939 292.853 26.0083C292.939 26.0083 293.083 26.0371 293.285 26.1092C293.66 26.2534 294.049 26.2101 294.367 26.0083C294.626 25.8353 294.828 25.5614 294.986 25.1433C295.131 24.7252 295.159 24.3792 295.073 24.0764L295.102 24.0908Z" fill="#E9098A"></path><path d="M290.517 40.7569C280.296 42.1409 268.2 44.6639 261.885 46.0479C261.034 46.2354 260.487 47.086 260.674 47.9366C260.833 48.6718 261.496 49.1764 262.217 49.1764C262.332 49.1764 262.447 49.1764 262.563 49.1332C268.82 47.7636 280.815 45.255 290.935 43.8854C291.8 43.7701 292.406 42.9771 292.291 42.0977C292.175 41.2327 291.368 40.6271 290.503 40.7425L290.517 40.7569Z" fill="#E9098A"></path><path d="M225.251 31.8904C225.482 31.6886 225.727 31.4723 225.972 31.2417L224.112 49.7243C224.055 50.3154 224.3 50.7911 224.776 51.0074C224.978 51.1083 225.208 51.1516 225.482 51.1516C225.67 51.1516 225.857 51.1227 226.073 51.0795C226.578 50.9785 226.967 50.82 227.27 50.6037C227.673 50.3154 227.904 49.8829 227.919 49.4215L230.196 26.0515C230.254 25.4604 230.009 24.9847 229.533 24.7684C229.187 24.6098 228.769 24.581 228.265 24.6819C227.846 24.7684 227.515 24.8693 227.255 24.9991C226.967 25.1288 226.708 25.3163 226.462 25.5469C226.261 25.7344 226.03 26.0083 225.756 26.3543C225.424 26.758 225.05 27.1616 224.631 27.5797C224.213 28.0122 223.781 28.4159 223.363 28.8052C222.93 29.2089 222.527 29.5693 222.166 29.8865C221.69 30.2901 221.373 30.6506 221.215 30.9966C221.056 31.3282 220.984 31.8904 221.517 32.6257C222.094 33.4042 222.671 33.4619 223.06 33.3754C223.449 33.2889 223.853 33.0726 224.329 32.6978C224.632 32.4527 224.934 32.1788 225.28 31.876L225.251 31.8904Z" fill="#E9098A"></path><path d="M247.828 24.5522C248.16 24.4801 248.636 24.2494 248.953 23.5718C249.184 23.0961 249.227 22.5482 249.083 21.9139C248.982 21.4525 248.737 21.2219 248.564 21.0921C248.376 20.9768 248.059 20.847 247.627 20.9335L236.554 23.2979C236.165 23.3844 235.862 23.5574 235.617 23.8457C235.387 24.1341 235.257 24.4224 235.257 24.6675L233.786 35.9272C233.685 36.8066 233.902 37.3833 234.435 37.6717C234.738 37.8302 235.242 37.96 235.934 37.6717C236.367 37.4842 236.742 37.2247 237.016 36.9076C237.39 36.5039 237.794 36.129 238.227 35.783C238.659 35.4514 239.121 35.1487 239.625 34.8892C240.13 34.6441 240.692 34.4422 241.283 34.3125C241.874 34.1827 242.393 34.1539 242.797 34.226C243.186 34.2981 243.503 34.4278 243.763 34.6297C244.022 34.8459 244.253 35.1198 244.412 35.4514C244.599 35.8263 244.743 36.2588 244.858 36.749C245.046 37.5996 245.089 38.4646 245.003 39.2864C244.916 40.1081 244.7 40.8867 244.354 41.5931C244.008 42.2851 243.518 42.8762 242.898 43.3664C242.278 43.8566 241.499 44.2026 240.577 44.39C239.769 44.563 239.048 44.6207 238.414 44.5774C237.809 44.5197 237.217 44.3756 236.684 44.1161C236.107 43.8421 235.502 43.4817 234.868 43.0204C234.522 42.7753 234.002 42.4581 233.483 42.5446C233.065 42.6167 232.705 42.905 232.359 43.4096C231.782 44.1593 231.898 44.7216 232.099 45.0676C232.272 45.3559 232.575 45.6875 233.065 46.0912C233.642 46.5525 234.262 46.9418 234.882 47.2446C235.516 47.5617 236.165 47.8068 236.828 47.9798C237.477 48.1384 238.155 48.2249 238.832 48.2393C238.89 48.2393 238.948 48.2393 238.991 48.2393C239.611 48.2393 240.216 48.1817 240.807 48.0519C242.22 47.7492 243.489 47.2446 244.585 46.5381C245.695 45.8173 246.617 44.9234 247.338 43.8421C248.059 42.7609 248.535 41.5066 248.751 40.1226C248.982 38.7529 248.91 37.2247 248.564 35.5956C248.333 34.5288 247.872 33.5628 247.194 32.7266C246.502 31.876 245.594 31.2705 244.484 30.8957C243.388 30.5352 242.105 30.5064 240.678 30.8092C240.115 30.9245 239.567 31.1119 239.048 31.357C238.616 31.5588 238.212 31.7895 237.837 32.0346L238.558 26.5273L247.843 24.5378L247.828 24.5522Z" fill="#E9098A"></path><path d="M246.214 49.6666C238.501 50.9209 230.269 52.9393 224.199 55.0874C223.377 55.3758 222.945 56.284 223.233 57.1058C223.464 57.7546 224.069 58.1582 224.732 58.1582C224.905 58.1582 225.093 58.1294 225.266 58.0717C231.162 55.9957 239.193 54.0206 246.733 52.7951C247.598 52.6509 248.189 51.8436 248.045 50.9786C247.901 50.1135 247.108 49.5224 246.228 49.6666H246.214Z" fill="#E9098A"></path></g><defs><clipPath id="clip0_14_28"><rect width="295.159" height="80" fill="white"></rect></clipPath></defs></svg> 